<svg xmlns="http://www.w3.org/2000/svg" viewBox="0 0 512 512">
  <rect width="512" height="512" rx="96" fill="#08090c"/>
  <g transform="translate(256,256)">
    <circle r="36" fill="#3ee8b5"/>
    <path d="M-32,-55.4L-77,-133.4A154,154,0,0,1,77,-133.4L32,-55.4A64,64,0,0,0,-32,-55.4Z" fill="#3ee8b5" opacity=".85"/>
    <path d="M-32,-55.4L-77,-133.4A154,154,0,0,1,77,-133.4L32,-55.4A64,64,0,0,0,-32,-55.4Z" fill="#3ee8b5" opacity=".85" transform="rotate(120)"/>
    <path d="M-32,-55.4L-77,-133.4A154,154,0,0,1,77,-133.4L32,-55.4A64,64,0,0,0,-32,-55.4Z" fill="#3ee8b5" opacity=".85" transform="rotate(240)"/>
  </g>
</svg>
